<svg width="138" height="138" viewBox="0 0 138 138" fill="none" xmlns="http://www.w3.org/2000/svg">
<g filter="url(#filter0_d_51_42)">
<circle cx="69" cy="65" r="65" fill="#6A3BB7"/>
<path d="M113.217 80.3454C109.475 90.6682 102.202 99.3341 92.6837 104.808C83.1657 110.283 72.0176 112.212 61.2134 110.256C50.4091 108.299 40.6459 102.582 33.6523 94.1175C26.6588 85.6528 22.8862 74.9864 23.0026 64.007C23.119 53.0277 27.1169 42.4437 34.2883 34.1292C41.4597 25.8147 51.342 20.3061 62.1853 18.5789C73.0286 16.8517 84.1333 19.0173 93.5331 24.6922C102.933 30.3671 110.021 39.1852 113.543 49.585L99.6512 54.2894C97.2402 47.1698 92.3876 41.1331 85.9527 37.2482C79.5177 33.3632 71.9156 31.8807 64.4925 33.0631C57.0693 34.2455 50.3041 38.0166 45.3946 43.7086C40.4852 49.4006 37.7483 56.6462 37.6686 64.1625C37.5889 71.6788 40.1716 78.9809 44.9592 84.7757C49.7469 90.5704 56.4307 94.4841 63.8271 95.8236C71.2235 97.1632 78.8553 95.8422 85.3712 92.0945C91.8871 88.3469 96.8666 82.4144 99.428 75.3475L113.217 80.3454Z" fill="white"/>
<path d="M78.6227 56.24C77.8374 54.7933 76.7007 53.698 75.2127 52.954C73.7661 52.1687 72.0507 51.776 70.0667 51.776C66.6361 51.776 63.8874 52.9127 61.8207 55.186C59.7541 57.418 58.7207 60.4147 58.7207 64.176C58.7207 68.1853 59.7954 71.3267 61.9447 73.6C64.1354 75.832 67.1321 76.948 70.9347 76.948C73.5387 76.948 75.7294 76.2867 77.5067 74.964C79.3254 73.6413 80.6481 71.74 81.4747 69.26H68.0207V61.448H91.0847V71.306C90.2994 73.9513 88.9561 76.4107 87.0547 78.684C85.1947 80.9573 82.8181 82.7967 79.9247 84.202C77.0314 85.6073 73.7661 86.31 70.1287 86.31C65.8301 86.31 61.9861 85.38 58.5967 83.52C55.2487 81.6187 52.6241 78.994 50.7227 75.646C48.8627 72.298 47.9327 68.4747 47.9327 64.176C47.9327 59.8773 48.8627 56.054 50.7227 52.706C52.6241 49.3167 55.2487 46.692 58.5967 44.832C61.9447 42.9307 65.7681 41.98 70.0667 41.98C75.2747 41.98 79.6561 43.2407 83.2107 45.762C86.8067 48.2833 89.1834 51.776 90.3407 56.24H78.6227Z" fill="white"/>
</g>
<defs>
<filter id="filter0_d_51_42" x="0" y="0" width="138" height="138" filterUnits="userSpaceOnUse" color-interpolation-filters="sRGB">
<feFlood flood-opacity="0" result="BackgroundImageFix"/>
<feColorMatrix in="SourceAlpha" type="matrix" values="0 0 0 0 0 0 0 0 0 0 0 0 0 0 0 0 0 0 127 0" result="hardAlpha"/>
<feOffset dy="4"/>
<feGaussianBlur stdDeviation="2"/>
<feComposite in2="hardAlpha" operator="out"/>
<feColorMatrix type="matrix" values="0 0 0 0 0 0 0 0 0 0 0 0 0 0 0 0 0 0 0.25 0"/>
<feBlend mode="normal" in2="BackgroundImageFix" result="effect1_dropShadow_51_42"/>
<feBlend mode="normal" in="SourceGraphic" in2="effect1_dropShadow_51_42" result="shape"/>
</filter>
</defs>
</svg>
